<svg width="32" height="32" viewBox="0 0 32 32" fill="none" xmlns="http://www.w3.org/2000/svg">
<path d="M16.4076 22.276C15.9929 22.048 15.4916 22.052 15.0876 22.2933L10.0902 25.2267L12.0476 17.6133C13.2142 18.28 14.5622 18.6667 15.9996 18.6667C17.4369 18.6667 18.7849 18.28 19.9529 17.6133L21.9382 25.336L16.4076 22.276ZM15.9996 5.33332C18.9409 5.33332 21.3329 7.72532 21.3329 10.6667C21.3329 13.608 18.9409 16 15.9996 16C13.0582 16 10.6662 13.608 10.6662 10.6667C10.6662 7.72532 13.0582 5.33332 15.9996 5.33332ZM25.2916 27.668L22.2129 15.696C23.3276 14.32 23.9996 12.572 23.9996 10.6667C23.9996 6.25466 20.4116 2.66666 15.9996 2.66666C11.5889 2.66666 7.99958 6.25466 7.99958 10.6667C7.99958 12.572 8.67158 14.32 9.78625 15.696L6.70891 27.668C6.57425 28.1907 6.76758 28.7413 7.19825 29.0653C7.62758 29.3893 8.21158 29.4187 8.67425 29.1493L15.7809 24.9773L23.3542 29.1667C23.5556 29.2787 23.7782 29.3333 23.9996 29.3333C24.2889 29.3333 24.5769 29.24 24.8169 29.0547C25.2369 28.7293 25.4249 28.184 25.2916 27.668Z" fill="#001D26"/>
</svg>
