<svg width="32" height="32" viewBox="0 0 32 32" fill="none" xmlns="http://www.w3.org/2000/svg">
<path d="M24 25.3333H8C7.26533 25.3333 6.66667 24.736 6.66667 24V17.3333H9.33333V21.3333C9.33333 22.0707 9.93067 22.6667 10.6667 22.6667H21.3333C22.0693 22.6667 22.6667 22.0707 22.6667 21.3333V17.3333H25.3333V24C25.3333 24.736 24.7347 25.3333 24 25.3333ZM11.1227 7.404C11.3493 6.94933 11.8067 6.66667 12.3147 6.66667H19.6853C20.1933 6.66667 20.6507 6.94933 20.8773 7.404L24.5093 14.6667H21.3333C20.5973 14.6667 20 15.2627 20 16V20H12V16C12 15.2627 11.4027 14.6667 10.6667 14.6667H7.49067L11.1227 7.404ZM27.7187 15.1227L23.2627 6.21067C22.5813 4.848 21.2107 4 19.6853 4H12.3147C10.7893 4 9.41867 4.848 8.73733 6.21067L4.28133 15.1227C4.09733 15.4907 4 15.904 4 16.3147V24C4 26.2053 5.79467 28 8 28H24C26.2053 28 28 26.2053 28 24V16.3147C28 15.904 27.9027 15.4907 27.7187 15.1227Z" fill="#001D26"/>
</svg>
