<svg width="36" height="36" viewBox="0 0 36 36" fill="none" xmlns="http://www.w3.org/2000/svg">
<path d="M36 18C36 27.9411 27.9411 36 18 36C8.05887 36 0 27.9411 0 18C0 8.05887 8.05887 0 18 0C27.9411 0 36 8.05887 36 18Z" fill="#6546DE"/>
<path d="M17.9998 16.9999C17.4478 16.9999 16.9998 17.4469 16.9998 17.9999L16.9998 23.6439L15.6948 22.3839C15.2968 22.0009 14.6638 22.0119 14.2808 22.4089C13.8968 22.8069 13.9078 23.4399 14.3048 23.8229L17.3048 26.7199C17.4998 26.9059 17.7498 26.9999 17.9998 26.9999C18.2558 26.9999 18.5118 26.9029 18.7068 26.7069L21.7068 23.7069C22.0978 23.3169 22.0978 22.6839 21.7068 22.2929C21.3168 21.9029 20.6838 21.9029 20.2928 22.2929L18.9998 23.5859L18.9998 17.9999C18.9998 17.4469 18.5518 16.9999 17.9998 16.9999ZM18.0002 9C15.4192 9 13.1452 10.661 12.3252 13.045C9.88618 13.376 8.00018 15.472 8.00018 18C8.00018 19.221 8.44418 20.396 9.25018 21.309C9.44818 21.532 9.72318 21.6471 10.0002 21.6471C10.2352 21.6471 10.4712 21.565 10.6622 21.397C11.0752 21.03 11.1152 20.399 10.7492 19.984C10.2662 19.438 10.0002 18.732 10.0002 18C10.0002 16.346 11.3462 15 13.0002 15H13.1002C13.5762 15 13.9862 14.664 14.0802 14.197C14.4542 12.345 16.1022 11 18.0002 11C19.8972 11 21.5462 12.345 21.9192 14.197C22.0132 14.664 22.4242 15 22.9002 15H23.0002C24.6542 15 26.0002 16.346 26.0002 18C26.0002 18.732 25.7342 19.438 25.2502 19.984C24.8852 20.399 24.9242 21.03 25.3382 21.397C25.7532 21.763 26.3842 21.722 26.7492 21.309C27.5562 20.396 28.0002 19.221 28.0002 18C28.0002 15.472 26.1142 13.376 23.6752 13.045C22.8542 10.661 20.5802 9 18.0002 9Z" fill="white"/>
</svg>
