<svg width="27" height="27" viewBox="0 0 27 27" fill="none" xmlns="http://www.w3.org/2000/svg">
<path d="M18.9848 17.72L12.7673 20.4703L7.2574 16.4874L9.05904 15.9347L12.4721 18.4013C12.6194 18.5084 12.7898 18.5716 12.9649 18.59C13.14 18.6084 13.3188 18.5819 13.4861 18.5079L17.3376 16.8038L18.9848 17.72ZM12.9001 14.3293C13.0474 14.4364 13.2178 14.4996 13.3929 14.518C13.568 14.5364 13.7468 14.5099 13.9141 14.4359L17.7655 12.7318L19.4128 13.648L13.1952 16.3982L7.68538 12.4154L9.48713 11.8617L12.9001 14.3293ZM14.2395 6.46253L19.8408 9.57599L13.6232 12.3262L8.11337 8.34339L14.2395 6.46253ZM22.7296 13.799C22.7468 13.4107 22.5432 13.0466 22.2038 12.8576L20.1111 11.6948L22.5495 10.6162C22.9046 10.46 23.1395 10.1152 23.1576 9.72699C23.1746 9.33973 22.9712 8.97457 22.6318 8.78554L14.8523 4.46123C14.6093 4.32556 14.3212 4.29528 14.0552 4.37745L5.54665 6.98982C5.17542 7.10416 4.90045 7.41903 4.83761 7.80148C4.77365 8.18484 4.93273 8.57107 5.24754 8.79765L7.40742 10.3596L5.11866 11.0618C4.74744 11.1762 4.47258 11.49 4.40963 11.8735C4.34566 12.2569 4.50474 12.6431 4.81955 12.8697L6.97943 14.4316L4.69068 15.1339C4.31945 15.2482 4.04459 15.562 3.98164 15.9455C3.91768 16.3289 4.07676 16.7151 4.39156 16.9417L12.0442 22.4733C12.1914 22.5804 12.3618 22.6436 12.5369 22.662C12.712 22.6804 12.8908 22.6539 13.0581 22.5799L21.6936 18.7602C22.0486 18.604 22.2835 18.2592 22.3016 17.871C22.3187 17.4838 22.1152 17.1186 21.7769 16.9297L19.6842 15.7659L22.1215 14.6882C22.4766 14.532 22.7115 14.1872 22.7296 13.799Z" fill="#6546DE"/>
</svg>
