<svg width="27" height="27" viewBox="0 0 27 27" fill="none" xmlns="http://www.w3.org/2000/svg">
<path d="M19.7423 16.4875L14.2324 20.4703L8.01489 17.7201L9.66225 16.8048L13.5136 18.5079C13.6799 18.5821 13.8597 18.6084 14.0348 18.59C14.2099 18.5716 14.3793 18.5086 14.5275 18.4014L17.9405 15.9337L19.7423 16.4875ZM13.0856 14.4359C13.2519 14.51 13.4317 14.5364 13.6068 14.518C13.7819 14.4996 13.9513 14.4365 14.0996 14.3294L17.5126 11.8617L19.3143 12.4154L13.8044 16.3983L7.58691 13.648L9.23415 12.7318L13.0856 14.4359ZM12.7602 6.46258L18.8863 8.34344L13.3765 12.3263L7.15892 9.57604L12.7602 6.46258ZM22.59 11.8735C22.5261 11.4902 22.2512 11.1763 21.88 11.062L19.5912 10.3597L21.7521 8.7977C22.0669 8.57111 22.225 8.185 22.1621 7.80153C22.0982 7.41918 21.8232 7.10431 21.452 6.98997L12.9435 4.37761C12.6775 4.29543 12.3894 4.32571 12.1464 4.46139L4.36687 8.78569C4.02753 8.97472 3.82404 9.33987 3.84209 9.72703C3.85922 10.1153 4.09513 10.46 4.45017 10.6162L6.88759 11.695L4.79486 12.8577C4.45552 13.0467 4.25192 13.4109 4.27007 13.799C4.28721 14.1873 4.52311 14.532 4.87815 14.6882L7.31558 15.767L5.22284 16.9297C4.8835 17.1187 4.6799 17.4829 4.69806 17.8711C4.71519 18.2593 4.9511 18.604 5.30614 18.7602L13.9416 22.5799C14.1079 22.6541 14.2877 22.6805 14.4628 22.6621C14.6379 22.6436 14.8073 22.5806 14.9555 22.4734L22.6081 16.9417C22.9229 16.7151 23.081 16.329 23.018 15.9455C22.9542 15.5632 22.6792 15.2483 22.309 15.1339L20.0201 14.4306L22.1801 12.8697C22.4949 12.6431 22.653 12.257 22.59 11.8735Z" fill="#6546DE"/>
</svg>
