<svg width="32" height="24" viewBox="0 0 32 24" fill="none" xmlns="http://www.w3.org/2000/svg">
<path d="M0 12C0 5.37258 5.37258 0 12 0H20C26.6274 0 32 5.37258 32 12C32 18.6274 26.6274 24 20 24H12C5.37258 24 0 18.6274 0 12Z" fill="#BCE079" fill-opacity="0.6"/>
<path d="M21.25 11.25L12.3513 11.25L15.076 7.97999C15.3415 7.66199 15.298 7.18874 14.98 6.92399C14.6613 6.65849 14.1887 6.70199 13.924 7.01999L10.174 11.52C10.1448 11.5552 10.1298 11.5965 10.108 11.6355C10.09 11.667 10.0683 11.694 10.0548 11.7285C10.021 11.8147 10.0008 11.9055 10.0008 11.997C10.0008 11.9977 10 11.9992 10 12C10 12.0007 10.0008 12.0022 10.0008 12.003C10.0008 12.0945 10.021 12.1852 10.0548 12.2715C10.0683 12.306 10.09 12.333 10.108 12.3645C10.1298 12.4035 10.1448 12.4447 10.174 12.48L13.924 16.98C14.0725 17.1577 14.2855 17.25 14.5 17.25C14.6695 17.25 14.8398 17.193 14.98 17.076C15.298 16.8112 15.3415 16.338 15.076 16.02L12.3513 12.75L21.25 12.75C21.664 12.75 22 12.414 22 12C22 11.586 21.664 11.25 21.25 11.25Z" fill="#839C54"/>
</svg>
