<svg width="80" height="60" viewBox="0 0 80 60" fill="none" xmlns="http://www.w3.org/2000/svg">
<mask id="path-1-inside-1_254_12083" fill="white">
<path d="M0 12C0 5.37258 5.37258 0 12 0L68 0C74.6274 0 80 5.37258 80 12V48C80 54.6274 74.6274 60 68 60H12C5.37258 60 0 54.6274 0 48L0 12Z"/>
</mask>
<path d="M0 12C0 5.37258 5.37258 0 12 0L68 0C74.6274 0 80 5.37258 80 12V48C80 54.6274 74.6274 60 68 60H12C5.37258 60 0 54.6274 0 48L0 12Z" fill="#BCE079"/>
<path d="M12 0V1.5H68V0V-1.5H12V0ZM80 12H78.5V48H80H81.5V12H80ZM68 60V58.5H12V60V61.5H68V60ZM0 48H1.5V12H0H-1.5V48H0ZM12 60V58.5C6.20101 58.5 1.5 53.799 1.5 48H0H-1.5C-1.5 55.4558 4.54415 61.5 12 61.5V60ZM80 48H78.5C78.5 53.799 73.799 58.5 68 58.5V60V61.5C75.4558 61.5 81.5 55.4558 81.5 48H80ZM68 0V1.5C73.799 1.5 78.5 6.20101 78.5 12H80H81.5C81.5 4.54416 75.4558 -1.5 68 -1.5V0ZM12 0V-1.5C4.54416 -1.5 -1.5 4.54415 -1.5 12H0H1.5C1.5 6.20101 6.20101 1.5 12 1.5V0Z" fill="#001D26" mask="url(#path-1-inside-1_254_12083)"/>
<path d="M49.9886 21.748C49.9886 20.833 49.2486 20.088 48.332 20.083L35.0103 19.9996L35.0003 19.9996C34.0836 19.9996 33.3403 20.7396 33.3336 21.6563C33.327 22.5763 34.0686 23.328 34.9903 23.333L44.2536 23.3913L30.4886 37.1546C29.837 37.8063 29.837 38.8613 30.4886 39.5113C30.8136 39.838 31.2403 39.9996 31.667 39.9996C32.0936 39.9996 32.5203 39.838 32.8453 39.5113L46.6586 25.698L46.667 35.0013C46.667 35.9213 47.4136 36.6663 48.3336 36.6663L48.3353 36.6663C49.2553 36.6663 50.0003 35.918 50.0003 34.998L49.9886 21.748Z" fill="#001D26"/>
</svg>
