<svg width="32" height="24" viewBox="0 0 32 24" fill="none" xmlns="http://www.w3.org/2000/svg">
<path d="M0 12C0 5.37258 5.37258 0 12 0H20C26.6274 0 32 5.37258 32 12C32 18.6274 26.6274 24 20 24H12C5.37258 24 0 18.6274 0 12Z" fill="#C4213B" fill-opacity="0.16"/>
<path d="M20.6667 11.3334L12.7567 11.3334L15.1787 8.42677C15.4147 8.1441 15.376 7.72344 15.0934 7.4881C14.81 7.2521 14.39 7.29077 14.1547 7.57344L10.8214 11.5734C10.7954 11.6048 10.782 11.6414 10.7627 11.6761C10.7467 11.7041 10.7274 11.7281 10.7154 11.7588C10.6854 11.8354 10.6674 11.9161 10.6674 11.9974C10.6674 11.9981 10.6667 11.9994 10.6667 12.0001C10.6667 12.0008 10.6674 12.0021 10.6674 12.0028C10.6674 12.0841 10.6854 12.1648 10.7154 12.2414C10.7274 12.2721 10.7467 12.2961 10.7627 12.3241C10.782 12.3588 10.7954 12.3954 10.8214 12.4268L14.1547 16.4268C14.2867 16.5848 14.476 16.6668 14.6667 16.6668C14.8174 16.6668 14.9687 16.6161 15.0934 16.5121C15.376 16.2768 15.4147 15.8561 15.1787 15.5734L12.7567 12.6668L20.6667 12.6668C21.0347 12.6668 21.3334 12.3681 21.3334 12.0001C21.3334 11.6321 21.0347 11.3334 20.6667 11.3334Z" fill="#C4213B"/>
</svg>
