<svg width="32" height="24" viewBox="0 0 32 24" fill="none" xmlns="http://www.w3.org/2000/svg">
<path d="M0 12C0 5.37258 5.37258 0 12 0H20C26.6274 0 32 5.37258 32 12C32 18.6274 26.6274 24 20 24H12C5.37258 24 0 18.6274 0 12Z" fill="#6546DE" fill-opacity="0.16"/>
<path d="M20.6667 11.3333L12.7567 11.3333L15.1787 8.42665C15.4147 8.14398 15.376 7.72331 15.0934 7.48798C14.81 7.25198 14.39 7.29065 14.1547 7.57331L10.8214 11.5733C10.7954 11.6046 10.782 11.6413 10.7627 11.676C10.7467 11.704 10.7274 11.728 10.7154 11.7586C10.6854 11.8353 10.6674 11.916 10.6674 11.9973C10.6674 11.998 10.6667 11.9993 10.6667 12C10.6667 12.0006 10.6674 12.002 10.6674 12.0026C10.6674 12.084 10.6854 12.1646 10.7154 12.2413C10.7274 12.272 10.7467 12.296 10.7627 12.324C10.782 12.3586 10.7954 12.3953 10.8214 12.4266L14.1547 16.4266C14.2867 16.5846 14.476 16.6666 14.6667 16.6666C14.8174 16.6666 14.9687 16.616 15.0934 16.512C15.376 16.2766 15.4147 15.856 15.1787 15.5733L12.7567 12.6666L20.6667 12.6666C21.0347 12.6666 21.3334 12.368 21.3334 12C21.3334 11.632 21.0347 11.3333 20.6667 11.3333Z" fill="#6546DE"/>
</svg>
