<svg width="48" height="48" viewBox="0 0 48 48" fill="none" xmlns="http://www.w3.org/2000/svg">
<path d="M0 24C0 10.7452 10.7452 0 24 0C37.2548 0 48 10.7452 48 24C48 37.2548 37.2548 48 24 48C10.7452 48 0 37.2548 0 24Z" fill="#6546DE" fill-opacity="0.12"/>
<path d="M17 25H28.865L25.232 29.36C24.878 29.784 24.936 30.415 25.36 30.768C25.785 31.122 26.415 31.064 26.769 30.64L31.769 24.64C31.808 24.593 31.827 24.538 31.856 24.486C31.88 24.444 31.909 24.408 31.927 24.362C31.972 24.247 31.999 24.126 31.999 24.004C31.999 24.003 32 24.001 32 24C32 23.999 31.999 23.997 31.999 23.996C31.999 23.874 31.972 23.753 31.927 23.638C31.909 23.592 31.88 23.556 31.856 23.514C31.827 23.462 31.808 23.407 31.769 23.36L26.769 17.36C26.57 17.123 26.286 17 26 17C25.774 17 25.547 17.076 25.36 17.232C24.936 17.585 24.878 18.216 25.232 18.64L28.865 23H17C16.448 23 16 23.448 16 24C16 24.552 16.448 25 17 25Z" fill="#6546DE"/>
</svg>
