<svg width="48" height="48" viewBox="0 0 48 48" fill="none" xmlns="http://www.w3.org/2000/svg">
<path d="M0 24C0 10.7452 10.7452 0 24 0C37.2548 0 48 10.7452 48 24C48 37.2548 37.2548 48 24 48C10.7452 48 0 37.2548 0 24Z" fill="#6546DE" fill-opacity="0.12"/>
<path d="M31 22.9999H19.135L22.768 18.6399C23.122 18.2159 23.064 17.5849 22.64 17.2319C22.215 16.8779 21.585 16.9359 21.232 17.3599L16.232 23.3599C16.193 23.4069 16.173 23.4619 16.144 23.5139C16.12 23.5559 16.091 23.5919 16.073 23.6379C16.028 23.7529 16.001 23.8739 16.001 23.9959C16.001 23.9969 16 23.9989 16 23.9999C16 24.0009 16.001 24.0029 16.001 24.0039C16.001 24.1259 16.028 24.2469 16.073 24.3619C16.091 24.4079 16.12 24.4439 16.144 24.4859C16.173 24.5379 16.193 24.5929 16.232 24.6399L21.232 30.6399C21.43 30.8769 21.714 30.9999 22 30.9999C22.226 30.9999 22.453 30.9239 22.64 30.7679C23.064 30.4149 23.122 29.7839 22.768 29.3599L19.135 24.9999H31C31.552 24.9999 32 24.5519 32 23.9999C32 23.4479 31.552 22.9999 31 22.9999Z" fill="#6546DE"/>
</svg>
