<svg width="20" height="20" viewBox="0 0 20 20" fill="none" xmlns="http://www.w3.org/2000/svg">
<path d="M19.9887 1.74833C19.9887 0.833331 19.2487 0.0883312 18.3321 0.0833313L5.01042 -4.38024e-07L5.00042 -4.3715e-07C4.08375 -3.57013e-07 3.34042 0.74 3.33375 1.65667C3.32708 2.57667 4.06875 3.32833 4.99042 3.33333L14.2537 3.39166L0.488751 17.155C-0.162915 17.8067 -0.162915 18.8617 0.488752 19.5117C0.813752 19.8383 1.24042 20 1.66708 20C2.09375 20 2.52042 19.8383 2.84542 19.5117L16.6587 5.69833L16.6671 15.0017C16.6671 15.9217 17.4137 16.6667 18.3337 16.6667L18.3354 16.6667C19.2554 16.6667 20.0004 15.9183 20.0004 14.9983L19.9887 1.74833Z" fill="#001D26"/>
</svg>
