<svg width="80" height="80" viewBox="0 0 80 80" fill="none" xmlns="http://www.w3.org/2000/svg">
<mask id="path-1-inside-1_120_6972" fill="white">
<path d="M0 8C0 3.58172 3.58172 0 8 0L72 0C76.4183 0 80 3.58172 80 8V72C80 76.4183 76.4183 80 72 80H8C3.58172 80 0 76.4183 0 72L0 8Z"/>
</mask>
<path d="M0 8C0 3.58172 3.58172 0 8 0L72 0C76.4183 0 80 3.58172 80 8V72C80 76.4183 76.4183 80 72 80H8C3.58172 80 0 76.4183 0 72L0 8Z" fill="#BCE079"/>
<path d="M8 0V1.5H72V0V-1.5H8V0ZM80 8H78.5V72H80H81.5V8H80ZM72 80V78.5H8V80V81.5H72V80ZM0 72H1.5V8H0H-1.5V72H0ZM8 80V78.5C4.41015 78.5 1.5 75.5898 1.5 72H0H-1.5C-1.5 77.2467 2.7533 81.5 8 81.5V80ZM80 72H78.5C78.5 75.5898 75.5898 78.5 72 78.5V80V81.5C77.2467 81.5 81.5 77.2467 81.5 72H80ZM72 0V1.5C75.5898 1.5 78.5 4.41015 78.5 8H80H81.5C81.5 2.75329 77.2467 -1.5 72 -1.5V0ZM8 0V-1.5C2.75329 -1.5 -1.5 2.7533 -1.5 8H0H1.5C1.5 4.41015 4.41015 1.5 8 1.5V0Z" fill="#001D26" mask="url(#path-1-inside-1_120_6972)"/>
<path d="M49.9887 31.748C49.9887 30.833 49.2487 30.088 48.3321 30.083L35.0104 29.9996L35.0004 29.9996C34.0838 29.9996 33.3404 30.7396 33.3338 31.6563C33.3271 32.5763 34.0687 33.328 34.9904 33.333L44.2537 33.3913L30.4888 47.1546C29.8371 47.8063 29.8371 48.8613 30.4888 49.5113C30.8138 49.838 31.2404 49.9996 31.6671 49.9996C32.0938 49.9996 32.5204 49.838 32.8454 49.5113L46.6587 35.698L46.6671 45.0013C46.6671 45.9213 47.4137 46.6663 48.3337 46.6663L48.3354 46.6663C49.2554 46.6663 50.0004 45.918 50.0004 44.998L49.9887 31.748Z" fill="#001D26"/>
</svg>
