<svg width="18" height="18" viewBox="0 0 18 18" fill="none" xmlns="http://www.w3.org/2000/svg">
<path d="M14.25 8.25005L5.35125 8.25005L8.076 4.98005C8.3415 4.66205 8.298 4.1888 7.98 3.92405C7.66125 3.65855 7.18875 3.70205 6.924 4.02005L3.174 8.52005C3.14475 8.5553 3.12975 8.59655 3.108 8.63555C3.09 8.66705 3.06825 8.69405 3.05475 8.72855C3.021 8.8148 3.00075 8.90555 3.00075 8.99705C3.00075 8.9978 3 8.9993 3 9.00005C3 9.0008 3.00075 9.0023 3.00075 9.00305C3.00075 9.09455 3.021 9.1853 3.05475 9.27155C3.06825 9.30605 3.09 9.33305 3.108 9.36455C3.12975 9.40355 3.14475 9.4448 3.174 9.48005L6.924 13.9801C7.0725 14.1578 7.2855 14.2501 7.5 14.2501C7.6695 14.2501 7.83975 14.1931 7.98 14.0761C8.298 13.8113 8.3415 13.3381 8.076 13.0201L5.35125 9.75005L14.25 9.75005C14.664 9.75005 15 9.41405 15 9.00005C15 8.58605 14.664 8.25005 14.25 8.25005Z" fill="#839C54"/>
</svg>
