<svg width="36" height="36" viewBox="0 0 36 36" fill="none" xmlns="http://www.w3.org/2000/svg">
<path d="M26.3232 21.9831L18.9767 27.2935L10.6868 23.6265L12.8832 22.4062L18.0183 24.677C18.2401 24.7759 18.4798 24.8111 18.7133 24.7865C18.9467 24.762 19.1725 24.6779 19.3702 24.5349L23.9209 21.2448L26.3232 21.9831ZM17.4477 19.2477C17.6694 19.3466 17.9092 19.3817 18.1426 19.3572C18.3761 19.3327 18.6019 19.2486 18.7996 19.1056L23.3502 15.8155L25.7525 16.5538L18.4061 21.8642L10.1161 18.1972L12.3124 16.9756L17.4477 19.2477ZM17.0137 8.61669L25.1819 11.1245L17.8355 16.4349L9.54549 12.7679L17.0137 8.61669ZM30.1202 15.8312C30.0349 15.3201 29.6684 14.9016 29.1734 14.7492L26.1218 13.8129L29.003 11.7302C29.4227 11.428 29.6334 10.9132 29.5495 10.4019C29.4644 9.89215 29.0977 9.47233 28.6028 9.31988L17.2581 5.83675C16.9035 5.72719 16.5194 5.76756 16.1953 5.94846L5.82278 11.7142C5.37033 11.9662 5.09901 12.4531 5.12307 12.9693C5.14592 13.487 5.46046 13.9466 5.93384 14.1548L9.18371 15.5931L6.39342 17.1435C5.94097 17.3955 5.66951 17.881 5.69372 18.3986C5.71657 18.9163 6.0311 19.3759 6.50448 19.5841L9.75436 21.0224L6.96407 22.5728C6.51162 22.8248 6.24015 23.3103 6.26436 23.8279C6.28721 24.3456 6.60174 24.8052 7.07513 25.0134L18.589 30.1063C18.8107 30.2052 19.0504 30.2404 19.2839 30.2158C19.5174 30.1913 19.7432 30.1072 19.9409 29.9643L30.1442 22.5888C30.564 22.2867 30.7747 21.7718 30.6908 21.2605C30.6057 20.7508 30.239 20.3309 29.7454 20.1783L26.6936 19.2407L29.5736 17.1595C29.9933 16.8573 30.2041 16.3425 30.1202 15.8312Z" fill="#6546DE"/>
</svg>
