<svg width="19" height="27" viewBox="0 0 19 27" fill="none" xmlns="http://www.w3.org/2000/svg">
<path d="M9.86271 19.8544C9.44286 19.6236 8.93526 19.6276 8.52621 19.872L3.46641 22.842L5.44821 15.1335C6.62946 15.8085 7.99431 16.2 9.44961 16.2C10.9049 16.2 12.2698 15.8085 13.4524 15.1335L15.4625 22.9527L9.86271 19.8544ZM9.44961 2.7C12.4277 2.7 14.8496 5.1219 14.8496 8.09999C14.8496 11.0781 12.4277 13.5 9.44961 13.5C6.47151 13.5 4.04961 11.0781 4.04961 8.09999C4.04961 5.1219 6.47151 2.7 9.44961 2.7ZM18.8578 25.3138L15.7406 13.1922C16.8692 11.799 17.5496 10.0291 17.5496 8.09999C17.5496 3.63285 13.9168 0 9.44961 0C4.98381 0 1.34961 3.63285 1.34961 8.09999C1.34961 10.0291 2.03001 11.799 3.15861 13.1922L0.0428158 25.3138C-0.0935341 25.843 0.102216 26.4006 0.538266 26.7286C0.972965 27.0567 1.56426 27.0864 2.03271 26.8137L9.22821 22.5895L16.8962 26.8312C17.1001 26.9446 17.3255 27 17.5496 27C17.8426 27 18.1342 26.9055 18.3772 26.7178C18.8024 26.3884 18.9928 25.8363 18.8578 25.3138Z" fill="#001D26"/>
</svg>
