<svg width="24" height="24" viewBox="0 0 24 24" fill="none" xmlns="http://www.w3.org/2000/svg">
<path d="M20 21.3333H4C3.26533 21.3333 2.66667 20.736 2.66667 20V13.3333H5.33333V17.3333C5.33333 18.0707 5.93067 18.6667 6.66667 18.6667H17.3333C18.0693 18.6667 18.6667 18.0707 18.6667 17.3333V13.3333H21.3333V20C21.3333 20.736 20.7347 21.3333 20 21.3333ZM7.12267 3.404C7.34933 2.94933 7.80667 2.66667 8.31467 2.66667H15.6853C16.1933 2.66667 16.6507 2.94933 16.8773 3.404L20.5093 10.6667H17.3333C16.5973 10.6667 16 11.2627 16 12V16H8V12C8 11.2627 7.40267 10.6667 6.66667 10.6667H3.49067L7.12267 3.404ZM23.7187 11.1227L19.2627 2.21067C18.5813 0.848 17.2107 0 15.6853 0H8.31467C6.78933 0 5.41867 0.848 4.73733 2.21067L0.281333 11.1227C0.0973333 11.4907 0 11.904 0 12.3147V20C0 22.2053 1.79467 24 4 24H20C22.2053 24 24 22.2053 24 20V12.3147C24 11.904 23.9027 11.4907 23.7187 11.1227Z" fill="#001D26"/>
</svg>
