<svg width="40" height="40" viewBox="0 0 40 40" fill="none" xmlns="http://www.w3.org/2000/svg">
<path d="M17.8492 8.63649C18.3188 6.55738 21.2813 6.55738 21.7509 8.63649L22.0995 10.1796C22.4038 11.5271 23.9501 12.1676 25.1182 11.43L26.4558 10.5853C28.258 9.44726 30.3528 11.542 29.2147 13.3442L28.37 14.6819C27.6325 15.8499 28.273 17.3962 29.6204 17.7006L31.1636 18.0492C33.2427 18.5188 33.2427 21.4812 31.1636 21.9508L29.6204 22.2994C28.273 22.6038 27.6325 24.1501 28.37 25.3181L29.2147 26.6558C30.3528 28.458 28.258 30.5527 26.4558 29.4147L25.1182 28.57C23.9501 27.8324 22.4038 28.4729 22.0995 29.8204L21.7509 31.3635C21.2813 33.4426 18.3188 33.4426 17.8492 31.3635L17.5006 29.8204C17.1963 28.4729 15.65 27.8324 14.4819 28.57L13.1443 29.4147C11.3421 30.5527 9.2473 28.458 10.3854 26.6558L11.2301 25.3181C11.9676 24.1501 11.3271 22.6038 9.97966 22.2994L8.43654 21.9508C6.35743 21.4812 6.35743 18.5188 8.43654 18.0492L9.97966 17.7006C11.3271 17.3962 11.9676 15.8499 11.2301 14.6819L10.3854 13.3442C9.2473 11.542 11.342 9.44725 13.1443 10.5853L14.4819 11.43C15.65 12.1676 17.1963 11.5271 17.5006 10.1796L17.8492 8.63649Z" fill="white"/>
</svg>
