<svg width="136" height="78" viewBox="0 0 136 78" fill="none" xmlns="http://www.w3.org/2000/svg">
<foreignObject x="8.79262" y="14.0543" width="58.6591" height="61.0489"><div xmlns="http://www.w3.org/1999/xhtml" style="backdrop-filter:blur(1.44px);clip-path:url(#bgblur_0_191_9403_clip_path);height:100%;width:100%"></div></foreignObject><g data-figma-bg-blur-radius="2.88922">
<path d="M51.5811 36.799C52.5958 36.8024 53.5353 37.3377 54.0547 38.2093L61.265 50.3082C61.7081 51.0516 61.7945 51.9555 61.5007 52.7695C61.2068 53.5833 60.5631 54.2225 59.7476 54.5115L18.4275 69.1578C17.4354 69.5095 16.3303 69.2934 15.5432 68.5945C14.7562 67.8954 14.4107 66.8235 14.6428 65.7967L24.5255 22.0863C24.7242 21.2074 25.3218 20.4712 26.1411 20.096C26.9604 19.7208 27.9084 19.7492 28.7037 20.173L43.5641 28.0955C44.4359 28.5603 45.0103 29.4381 45.0863 30.4232L45.5764 36.7784L51.5811 36.799Z" fill="white"/>
<path d="M51.5811 36.799C52.5958 36.8024 53.5353 37.3377 54.0547 38.2093L61.265 50.3082C61.7081 51.0516 61.7945 51.9555 61.5007 52.7695C61.2068 53.5833 60.5631 54.2225 59.7476 54.5115L18.4275 69.1578C17.4354 69.5095 16.3303 69.2934 15.5432 68.5945C14.7562 67.8954 14.4107 66.8235 14.6428 65.7967L24.5255 22.0863C24.7242 21.2074 25.3218 20.4712 26.1411 20.096C26.9604 19.7208 27.9084 19.7492 28.7037 20.173L43.5641 28.0955C44.4359 28.5603 45.0103 29.4381 45.0863 30.4232L45.5764 36.7784L51.5811 36.799Z" fill="#6546DE" fill-opacity="0.08"/>
<path d="M51.5811 36.799C52.5958 36.8024 53.5353 37.3377 54.0547 38.2093L61.265 50.3082C61.7081 51.0516 61.7945 51.9555 61.5007 52.7695C61.2068 53.5833 60.5631 54.2225 59.7476 54.5115L18.4275 69.1578C17.4354 69.5095 16.3303 69.2934 15.5432 68.5945C14.7562 67.8954 14.4107 66.8235 14.6428 65.7967L24.5255 22.0863C24.7242 21.2074 25.3218 20.4712 26.1411 20.096C26.9604 19.7208 27.9084 19.7492 28.7037 20.173L43.5641 28.0955C44.4359 28.5603 45.0103 29.4381 45.0863 30.4232L45.5764 36.7784L51.5811 36.799Z" stroke="white" stroke-width="5.77843" stroke-linejoin="round"/>
<path d="M51.5811 36.799C52.5958 36.8024 53.5353 37.3377 54.0547 38.2093L61.265 50.3082C61.7081 51.0516 61.7945 51.9555 61.5007 52.7695C61.2068 53.5833 60.5631 54.2225 59.7476 54.5115L18.4275 69.1578C17.4354 69.5095 16.3303 69.2934 15.5432 68.5945C14.7562 67.8954 14.4107 66.8235 14.6428 65.7967L24.5255 22.0863C24.7242 21.2074 25.3218 20.4712 26.1411 20.096C26.9604 19.7208 27.9084 19.7492 28.7037 20.173L43.5641 28.0955C44.4359 28.5603 45.0103 29.4381 45.0863 30.4232L45.5764 36.7784L51.5811 36.799Z" stroke="#6546DE" stroke-opacity="0.08" stroke-width="5.77843" stroke-linejoin="round"/>
</g>
<foreignObject x="13.0167" y="18.9669" width="49.2939" height="51.6607"><div xmlns="http://www.w3.org/1999/xhtml" style="backdrop-filter:blur(1.44px);clip-path:url(#bgblur_1_191_9403_clip_path);height:100%;width:100%"></div></foreignObject><g data-figma-bg-blur-radius="2.88922">
<path d="M28.9051 23.4733L42.0945 30.5044L42.7896 39.5188L51.4613 39.5477L57.7704 50.1339C58.237 50.9169 57.8759 51.9292 57.0168 52.2337L17.3513 66.293L26.8168 24.4271C27.027 23.4971 28.0638 23.0248 28.9051 23.4733Z" fill="#FFB23B" fill-opacity="0.4"/>
<path d="M42.0945 30.5044L28.9051 23.4733C28.0638 23.0248 27.027 23.4971 26.8168 24.4271C25.3884 30.7448 20.6022 51.9142 17.3513 66.293M42.0945 30.5044C42.0945 30.5044 27.0141 52.3167 17.3513 66.293M42.0945 30.5044L42.7896 39.5188M17.3513 66.293C31.0119 61.4511 51.1562 54.311 57.0168 52.2337C57.8759 51.9292 58.237 50.9169 57.7704 50.1339L51.4613 39.5477M17.3513 66.293C30.6721 55.8483 51.4613 39.5477 51.4613 39.5477M17.3513 66.293C27.2856 55.837 42.7896 39.5188 42.7896 39.5188M51.4613 39.5477L42.7896 39.5188" stroke="#FFB23B" stroke-width="2.88922" stroke-linejoin="round"/>
</g>
<path d="M51.6766 30.0469C58.9927 17.9306 80.1393 -3.68315 106.197 6.79231C138.77 19.8866 118.676 40.3013 110.044 33.8204C98.7429 25.3353 110.186 8.3957 135.277 0.722622" stroke="#001D26" stroke-opacity="0.24" stroke-width="1.44461" stroke-linecap="round" stroke-dasharray="4.33 4.33"/>
<defs>
<clipPath id="bgblur_0_191_9403_clip_path" transform="translate(-8.79262 -14.0543)"><path d="M51.5811 36.799C52.5958 36.8024 53.5353 37.3377 54.0547 38.2093L61.265 50.3082C61.7081 51.0516 61.7945 51.9555 61.5007 52.7695C61.2068 53.5833 60.5631 54.2225 59.7476 54.5115L18.4275 69.1578C17.4354 69.5095 16.3303 69.2934 15.5432 68.5945C14.7562 67.8954 14.4107 66.8235 14.6428 65.7967L24.5255 22.0863C24.7242 21.2074 25.3218 20.4712 26.1411 20.096C26.9604 19.7208 27.9084 19.7492 28.7037 20.173L43.5641 28.0955C44.4359 28.5603 45.0103 29.4381 45.0863 30.4232L45.5764 36.7784L51.5811 36.799Z"/>
</clipPath><clipPath id="bgblur_1_191_9403_clip_path" transform="translate(-13.0167 -18.9669)"><path d="M28.9051 23.4733L42.0945 30.5044L42.7896 39.5188L51.4613 39.5477L57.7704 50.1339C58.237 50.9169 57.8759 51.9292 57.0168 52.2337L17.3513 66.293L26.8168 24.4271C27.027 23.4971 28.0638 23.0248 28.9051 23.4733Z"/>
</clipPath></defs>
</svg>
