<svg width="48" height="48" viewBox="0 0 48 48" fill="none" xmlns="http://www.w3.org/2000/svg">
<path d="M21.3829 8.19091C21.8553 6.15908 24.7126 6.06327 25.32 8.0589L27.6007 15.5519C28.2369 17.6422 29.9397 19.2345 32.0679 19.7293L39.6969 21.5029C41.7287 21.9753 41.8245 24.8326 39.8289 25.44L32.3359 27.7207C30.2456 28.357 28.6533 30.0597 28.1585 32.1879L26.3849 39.8169C25.9125 41.8487 23.0552 41.9445 22.4478 39.9489L20.1671 32.4559C19.5308 30.3656 17.8281 28.7733 15.6998 28.2785L8.07091 26.5049C6.03908 26.0325 5.94327 23.1752 7.93889 22.5678L15.4319 20.2871C17.5222 19.6508 19.1145 17.9481 19.6092 15.8198L21.3829 8.19091Z" fill="#FFB23B"/>
</svg>
