<svg width="44" height="44" viewBox="0 0 44 44" fill="none" xmlns="http://www.w3.org/2000/svg">
<path d="M19.9582 7.20515C20.4881 5.22906 23.292 5.22906 23.8218 7.20515L25.6446 14.0039C26.1995 16.0737 27.8163 17.6905 29.8861 18.2454L36.6849 20.0682C38.661 20.598 38.661 23.402 36.6849 23.9318L29.8861 25.7546C27.8163 26.3095 26.1995 27.9263 25.6446 29.9961L23.8218 36.7948C23.292 38.7709 20.4881 38.7709 19.9582 36.7948L18.1354 29.9961C17.5805 27.9263 15.9637 26.3095 13.8939 25.7546L7.09517 23.9318C5.11907 23.402 5.11907 20.598 7.09517 20.0682L13.8939 18.2454C15.9637 17.6905 17.5805 16.0737 18.1354 14.0039L19.9582 7.20515Z" fill="#FFB23B"/>
</svg>
