<svg width="106" height="139" viewBox="0 0 106 139" fill="none" xmlns="http://www.w3.org/2000/svg">
<path d="M51.8176 96.0874L46.9836 111.266C46.582 112.527 47.4757 113.824 48.7981 113.878C56.5187 114.194 79.6806 115.142 95.5321 115.791M51.8176 96.0874C51.8176 96.0874 78.4605 108.096 95.5321 115.791M51.8176 96.0874L61.4507 93.5412M95.5321 115.791C87.748 102.261 76.3534 82.4557 72.6497 76.0182C72.0187 74.9215 70.5506 74.6901 69.5984 75.5233L59.7573 84.1356M95.5321 115.791C81.5612 103.429 59.7573 84.1356 59.7573 84.1356M95.5321 115.791C82.2225 107.102 61.4507 93.5412 61.4507 93.5412M59.7573 84.1356L61.4507 93.5412" stroke="#6546DE" stroke-width="3" stroke-linejoin="round"/>
<path d="M49.416 85.7916C34.8273 80.271 7.19312 61.6472 13.3658 31.3178C21.0817 -6.59394 47.2069 11.1276 41.8984 21.7731C34.9483 35.7103 14.3106 26.6756 1.00309 1.00312" stroke="#001D26" stroke-opacity="0.24" stroke-width="2" stroke-linecap="round" stroke-dasharray="6 6"/>
</svg>
