<svg preserveAspectRatio="none" width="100%" height="100%" overflow="visible" style="display: block;" viewBox="0 0 18 12" fill="none" xmlns="http://www.w3.org/2000/svg">
<g id="outline/menu">
<path d="M17.051 10C17.573 10 18 10.427 18 10.949V11.051C18 11.573 17.573 12 17.051 12H0.948C0.426 12 0 11.573 0 11.051V10.949C0 10.427 0.426 10 0.948 10H17.051Z" fill="var(--fill-0, #001D26)"/>
<path d="M17.051 5C17.573 5 18 5.427 18 5.949V6.051C18 6.573 17.573 7 17.051 7H0.948C0.426 7 0 6.573 0 6.051V5.949C0 5.427 0.426 5 0.948 5H17.051Z" fill="var(--fill-0, #001D26)"/>
<path d="M17.051 0C17.573 0 18 0.427 18 0.949V1.051C18 1.573 17.573 2 17.051 2H0.948C0.426 2 0 1.573 0 1.051V0.949C0 0.427 0.426 0 0.948 0H17.051Z" fill="var(--fill-0, #001D26)"/>
</g>
</svg>
